<!-- icon666.com - MILLIONS vector ICONS FREE --><svg viewBox="0 0 512 512" xmlns="http://www.w3.org/2000/svg"><g id="_24.credit_card" data-name="24.credit card"><path d="m444.3281 264.2539a5.9989 5.9989 0 0 1 -4.8213-2.4277 36.8485 36.8485 0 0 0 -29.48-14.85h-308.0532a36.3118 36.3118 0 0 0 -26.8506 11.69 6 6 0 0 1 -10.03-2.0361l-29.4494-80.9177a48.7457 48.7457 0 0 1 29.0947-62.4033l289.4834-105.3604a48.7473 48.7473 0 0 1 62.4033 29.0943l59.7314 164.122a48.7407 48.7407 0 0 1 -29.0947 62.4034l-.8691.3193a6.0056 6.0056 0 0 1 -2.0645.3662zm-342.3545-29.2773h308.0528a48.9188 48.9188 0 0 1 36.14 16.0673 36.7342 36.7342 0 0 0 18.9151-45.7734l-59.7315-164.1221a36.734 36.734 0 0 0 -47.0244-21.9233l-289.4828 105.3599a36.7327 36.7327 0 0 0 -21.9239 47.0229l26.4483 72.6694a48.8538 48.8538 0 0 1 28.6064-9.3007z"></path><path d="m68.4561 254.3252a6.0024 6.0024 0 0 1 -5.6377-3.95l-18.0313-49.54a6 6 0 0 1 3.5859-7.69l369.7051-134.5622a5.9985 5.9985 0 0 1 7.69 3.5859l18.0307 49.5411a6 6 0 0 1 -3.5859 7.69l-369.7051 134.5609a5.9729 5.9729 0 0 1 -2.0517.3643zm-10.3409-51.9561 13.9268 38.2637 358.4287-130.457-13.9268-38.2642z"></path><path d="m410.0264 507h-308.0528a48.7441 48.7441 0 0 1 -48.6894-48.6885v-73.9315a6 6 0 0 1 12 0v73.9316a36.73 36.73 0 0 0 36.6894 36.6884h308.0528a36.73 36.73 0 0 0 36.6894-36.6885v-174.6465a36.73 36.73 0 0 0 -36.6894-36.6884h-308.0528a36.73 36.73 0 0 0 -36.6894 36.6884v49.755a6 6 0 0 1 -12 0v-49.755a48.7441 48.7441 0 0 1 48.6894-48.6884h308.0528a48.7441 48.7441 0 0 1 48.6894 48.6884v174.6465a48.7441 48.7441 0 0 1 -48.6894 48.6885z"></path><path d="m59.2842 369.8a6 6 0 0 1 -6-6v-9.8a6 6 0 0 1 12 0v9.8a6 6 0 0 1 -6 6z"></path><path d="m413.3877 389.5791h-35.4385a24.0388 24.0388 0 0 1 -24.0117-24.0117v-13.5488a24.0388 24.0388 0 0 1 24.0117-24.0118h35.4385a24.0388 24.0388 0 0 1 24.0117 24.0118v13.5488a24.0388 24.0388 0 0 1 -24.0117 24.0117zm-35.4385-49.5723a12.0257 12.0257 0 0 0 -12.0117 12.0118v13.5488a12.0257 12.0257 0 0 0 12.0117 12.0117h35.4385a12.0257 12.0257 0 0 0 12.0117-12.0117v-13.5488a12.0257 12.0257 0 0 0 -12.0117-12.0118z"></path><path d="m202.1 334.5205h-83.3a25.6 25.6 0 0 1 0-51.2h83.3a25.6 25.6 0 1 1 0 51.2zm-83.3-39.2a13.6 13.6 0 0 0 0 27.2h83.3a13.6 13.6 0 1 0 0-27.2z"></path><path d="m159.96 453.1h-66.6407a6 6 0 0 1 0-12h66.6407a6 6 0 1 1 0 12z"></path><path d="m246.2 453.1h-66.64a6 6 0 0 1 0-12h66.64a6 6 0 0 1 0 12z"></path><path d="m332.44 453.1h-66.64a6 6 0 0 1 0-12h66.64a6 6 0 0 1 0 12z"></path><path d="m418.6807 453.1h-66.6407a6 6 0 1 1 0-12h66.6407a6 6 0 0 1 0 12z"></path></g></svg>