<!-- icon666.com - MILLIONS vector ICONS FREE --><svg id="Layer_35" enable-background="new 0 0 64 64" viewBox="0 0 64 64" xmlns="http://www.w3.org/2000/svg"><g><path d="m45 1h-3c-.517 0-.949.395-.996.91l-.334 3.682-.686-3.77c-.087-.476-.501-.822-.984-.822h-4c-.446 0-.839.296-.961.725l-.712 2.491-.337-2.358c-.071-.492-.492-.858-.99-.858h-7c-.489 0-.906.354-.986.835l-.014.082-.014-.082c-.08-.481-.497-.835-.986-.835h-4c-.552 0-1 .448-1 1v24c0 .431.275.812.684.949l5.205 1.735c1.828.609 3.066 2.294 3.11 4.212l-.575 2.585c-.945 4.253-1.424 8.619-1.424 12.975 0 3.8.676 7.53 2.01 11.086.776 2.068 2.781 3.458 4.99 3.458s4.214-1.39 4.99-3.458c1.334-3.556 2.01-7.286 2.01-11.086 0-4.356-.479-8.722-1.424-12.975l-.575-2.585c.044-1.918 1.283-3.603 3.11-4.212l5.205-1.735c.409-.137.684-.518.684-.949v-24c0-.552-.448-1-1-1zm-22.847 2 .861 5.165c.08.481.497.835.986.835s.906-.354.986-.835l.861-5.165h5.286l.877 6.142c.066.467.451.824.921.856.477.035.9-.27 1.03-.723l1.793-6.275h2.411l1.851 10.179c.09.492.524.833 1.028.82.5-.022.906-.41.952-.909l.917-10.09h1.087v15h-24v-15zm21.847 17v2h-24v-2zm-4.521 6.786c-2.679.894-4.479 3.391-4.479 6.214 0 .073.008.146.024.217l.6 2.698c.913 4.111 1.376 8.331 1.376 12.541 0 3.559-.634 7.053-1.883 10.384-.484 1.292-1.737 2.16-3.117 2.16s-2.633-.868-3.117-2.16c-1.249-3.331-1.883-6.825-1.883-10.384 0-4.21.463-8.43 1.376-12.542l.6-2.698c.016-.07.024-.143.024-.216 0-2.823-1.8-5.32-4.479-6.214l-4.521-1.507v-1.279h24v1.279z"></path><path d="m32 53c-1.654 0-3 1.346-3 3s1.346 3 3 3 3-1.346 3-3-1.346-3-3-3zm0 4c-.551 0-1-.449-1-1s.449-1 1-1 1 .449 1 1-.449 1-1 1z"></path></g></svg>