<!-- icon666.com - MILLIONS vector ICONS FREE --><svg viewBox="0 0 128 128" xmlns="http://www.w3.org/2000/svg"><g><path d="m109.9 11.58h-91.8a7.06 7.06 0 0 0 -7.052 7.052v91.8a7.061 7.061 0 0 0 7.052 7.048h91.8a7.061 7.061 0 0 0 7.053-7.052v-91.8a7.06 7.06 0 0 0 -7.053-7.048zm3.553 98.848a3.557 3.557 0 0 1 -3.553 3.552h-91.8a3.556 3.556 0 0 1 -3.552-3.552v-91.8a3.555 3.555 0 0 1 3.552-3.548h91.8a3.556 3.556 0 0 1 3.553 3.552z"></path><path d="m72.57 25.61h-26.048a5.711 5.711 0 0 0 -5.706 5.705v66.43a5.706 5.706 0 0 0 11.411 0v-26.676h20.343a22.73 22.73 0 1 0 0-45.459zm0 41.959h-22.093a1.749 1.749 0 0 0 -1.75 1.75v28.426a2.206 2.206 0 0 1 -4.411 0v-66.43a2.208 2.208 0 0 1 2.206-2.205h26.048a19.23 19.23 0 1 1 0 38.459z"></path><path d="m72.57 33.52h-22.093a1.75 1.75 0 0 0 -1.75 1.75v26.139a1.75 1.75 0 0 0 1.75 1.75h22.093a14.82 14.82 0 1 0 0-29.639zm0 26.139h-20.343v-22.639h20.343a11.32 11.32 0 1 1 0 22.639z"></path></g></svg>