<!-- icon666.com - MILLIONS vector ICONS FREE --><svg version="1.1" id="Capa_1" xmlns="http://www.w3.org/2000/svg" xmlns:xlink="http://www.w3.org/1999/xlink" x="0px" y="0px" viewBox="0 0 512 512" style="enable-background:new 0 0 512 512;" xml:space="preserve"><g><g><g><path d="M256,0C114.842,0,0,114.842,0,256s114.842,256,256,256s256-114.842,256-256S397.158,0,256,0z M256,494.933 C124.25,494.933,17.067,387.75,17.067,256S124.25,17.067,256,17.067S494.933,124.25,494.933,256S387.75,494.933,256,494.933z"></path><path d="M285.987,256.142c39.988,0,72.517-32.538,72.517-72.533c0-39.996-32.529-72.533-72.517-72.533h-97.594 c-0.243-0.021-0.453-0.142-0.702-0.142c-0.249,0-0.458,0.121-0.702,0.142h-16.219c-4.713,0-8.533,3.821-8.533,8.533 s3.821,8.533,8.533,8.533h8.388v110.933h-8.388c-4.713,0-8.533,3.821-8.533,8.533s3.821,8.533,8.533,8.533h8.388v17.013h-8.388 c-4.713,0-8.533,3.821-8.533,8.533s3.821,8.533,8.533,8.533h8.388v102.313c0,4.713,3.821,8.533,8.533,8.533 s8.533-3.821,8.533-8.533V290.221h136.679c4.713,0,8.533-3.821,8.533-8.533s-3.821-8.533-8.533-8.533H196.225v-17.013H285.987z M196.225,128.142h89.762c30.575,0,55.45,24.883,55.45,55.467s-24.875,55.467-55.45,55.467h-89.762V128.142z"></path></g></g></g></svg>