<!-- icon666.com - MILLIONS vector ICONS FREE --><svg viewBox="0 0 74 74" xmlns="http://www.w3.org/2000/svg"><g id="Numbers"><text font-family="ArialMT, Arial" font-size="18" transform="translate(31.995 -762.544)">5<tspan x="-5.005" y="124">15</tspan><tspan x="-5.005" y="248">25</tspan><tspan x="-5.005" y="372">35</tspan><tspan x="-5.005" y="496">45</tspan><tspan x="-5.005" y="620">55</tspan><tspan x="-5.005" y="744">65</tspan><tspan x="-5.005" y="868">75</tspan><tspan x="-5.005" y="992">85</tspan><tspan x="-5.005" y="1116">95</tspan><tspan x="-10.011" y="1240">105</tspan><tspan letter-spacing="-.074em" x="-9.343" y="1364">1</tspan><tspan x="-.668" y="1364">15</tspan><tspan x="-10.011" y="1488">125</tspan><tspan x="-10.011" y="1612">135</tspan><tspan x="-10.011" y="1736">145</tspan><tspan x="-10.011" y="1860">155</tspan><tspan x="-10.011" y="1984">165</tspan><tspan x="-10.011" y="2108">175</tspan><tspan x="-10.011" y="2232">185</tspan><tspan x="-10.011" y="2356">195</tspan><tspan x="-10.011" y="2480">205</tspan><tspan x="-10.011" y="2604">215</tspan><tspan x="-10.011" y="2728">225</tspan><tspan x="-10.011" y="2852">235</tspan><tspan x="-10.011" y="2976">245</tspan><tspan x="-10.011" y="3100">255</tspan><tspan x="-10.011" y="3224">265</tspan><tspan x="-10.011" y="3348">275</tspan><tspan x="-10.011" y="3472">285</tspan><tspan x="-10.011" y="3596">295</tspan></text></g><g id="Icons"><path d="m58.013 70.336a1 1 0 0 1 -.528-.151l-20.485-12.749-20.485 12.749a1 1 0 0 1 -1.5-1.089l5.795-23.422-18.454-15.543a1 1 0 0 1 .572-1.762l24.066-1.727 9.08-22.354a1 1 0 0 1 1.853 0l9.079 22.354 24.066 1.727a1 1 0 0 1 .572 1.762l-18.455 15.543 5.795 23.426a1 1 0 0 1 -.971 1.24zm-21.013-15.078a1 1 0 0 1 .528.151l18.923 11.777-5.351-21.636a1 1 0 0 1 .327-1l17.046-14.362-22.231-1.6a1 1 0 0 1 -.854-.621l-8.388-20.645-8.387 20.65a1 1 0 0 1 -.854.621l-22.231 1.6 17.047 14.352a1 1 0 0 1 .327 1l-5.353 21.641 18.923-11.777a1 1 0 0 1 .528-.151z"></path></g></svg>