<!-- icon666.com - MILLIONS vector ICONS FREE --><svg viewBox="-60 0 512 512" xmlns="http://www.w3.org/2000/svg"><path d="m196.265625 0c-73.328125.0078125-140.535156 40.894531-174.257813 106.011719-33.722656 65.117187-28.332031 143.597656 13.976563 203.492187-21.386719 6.691406-35.9570312 26.488282-35.984375 48.894532v102.402343c.0273438 28.265625 22.933594 51.171875 51.199219 51.199219h290.132812c28.265625-.027344 51.171875-22.933594 51.203125-51.199219v-102.402343c-.03125-22.40625-14.601562-42.203126-35.988281-48.894532 42.308594-59.894531 47.699219-138.375 13.980469-203.492187-33.722656-65.117188-100.929688-106.0039065-174.261719-106.011719zm0 17.066406c68.664063-.027344 131.300781 39.199219 161.257813 100.984375 29.953124 61.785157 21.957031 135.257813-20.59375 189.148438h-61.441407c48.351563-34.464844 68.886719-96.226563 50.792969-152.78125-18.09375-56.554688-70.664062-94.929688-130.039062-94.929688-59.378907 0-111.949219 38.375-130.042969 94.929688-18.089844 56.554687 2.441406 118.316406 50.792969 152.78125h-61.441407c-42.554687-53.898438-50.546875-127.382813-20.578125-189.171875 29.964844-61.789063 92.621094-101.007813 161.292969-100.960938zm-44.160156 290.132813c-53.25-21.183594-83.957031-77.199219-73.171875-133.484375 10.785156-56.289063 60.023437-96.988282 117.332031-96.988282 57.3125 0 106.546875 40.699219 117.332031 96.988282 10.785156 56.285156-19.917968 112.300781-73.171875 133.484375zm223.359375 110.933593h-358.398438v-17.066406h358.398438zm-34.132813 76.800782h-290.132812c-15.515625-.058594-29.042969-10.574219-32.921875-25.601563h246.257812c4.710938 0 8.53125-3.820312 8.53125-8.53125 0-4.714843-3.820312-8.535156-8.53125-8.535156h-247.46875v-17.066406h358.398438v17.066406h-76.796875c-4.714844 0-8.535157 3.820313-8.535157 8.535156 0 4.710938 3.820313 8.53125 8.535157 8.53125h75.585937c-3.878906 15.027344-17.402344 25.542969-32.921875 25.601563zm32.921875-145.066406h-254.789062c-4.710938 0-8.53125 3.820312-8.53125 8.53125 0 4.714843 3.820312 8.535156 8.53125 8.535156h256v17.066406h-358.398438v-17.066406h68.265625c4.714844 0 8.535157-3.820313 8.535157-8.535156 0-4.710938-3.820313-8.53125-8.535157-8.53125h-67.054687c3.878906-15.023438 17.40625-25.542969 32.921875-25.601563h290.132812c15.519531.058594 29.042969 10.578125 32.921875 25.601563zm0 0"></path><path d="m274.628906 262.058594c7.5-8.953125 13.410156-19.125 17.484375-30.070313v-.050781c.128907-.222656.128907-.472656.238281-.703125 8.382813-22.570313 8.382813-47.398437 0-69.972656-.109374-.230469-.109374-.476563-.238281-.699219-12.785156-34.160156-42.746093-58.960938-78.695312-65.132812h-.085938c-11.285156-2.050782-22.847656-2.050782-34.132812 0h-.085938c-35.945312 6.171874-65.910156 30.972656-78.691406 65.132812-.128906.222656-.128906.46875-.242187.699219-8.378907 22.574219-8.378907 47.402343 0 69.972656.113281.230469.113281.480469.242187.703125v.050781c4.070313 10.945313 9.984375 21.117188 17.484375 30.070313.421875.601562.917969 1.144531 1.476562 1.621094 15.476563 17.675781 36.570313 29.484374 59.730469 33.433593h.085938c11.285156 2.050781 22.847656 2.050781 34.132812 0h.085938c23.160156-3.949219 44.253906-15.757812 59.734375-33.433593.558594-.476563 1.054687-1.019532 1.476562-1.621094zm-156.082031-30.71875 43.585937-25.21875 1.945313 1.121094c1.4375 4.179687 3.671875 8.039062 6.589844 11.363281v2.203125l-43.574219 25.222656c-3.332031-4.609375-6.199219-9.542969-8.546875-14.726562zm-7.613281-35.074219c.015625-6.230469.714844-12.445313 2.082031-18.523437l32.050781 18.523437-32.085937 18.527344c-1.355469-6.082031-2.042969-12.292969-2.046875-18.527344zm16.160156-49.765625 43.574219 25.226562v2.199219c-2.90625 3.328125-5.136719 7.1875-6.5625 11.367188l-1.972657 1.117187-43.613281-25.179687c2.359375-5.1875 5.230469-10.121094 8.574219-14.730469zm146.894531 14.730469-43.589843 25.179687-1.945313-1.117187c-1.433594-4.179688-3.671875-8.042969-6.585937-11.367188v-2.199219l43.570312-25.226562c3.335938 4.613281 6.199219 9.546875 8.550781 14.730469zm7.613281 35.035156c-.019531 6.234375-.714843 12.445313-2.082031 18.527344l-32.054687-18.527344 32.085937-18.523437c1.355469 6.082031 2.042969 12.292968 2.050781 18.523437zm-102.402343 0c0-9.425781 7.640625-17.066406 17.066406-17.066406s17.066406 7.640625 17.066406 17.066406-7.640625 17.066406-17.066406 17.066406-17.066406-7.640625-17.066406-17.066406zm42.667969-44.269531v-37.128906c11.898437 3.789062 22.820312 10.144531 31.992187 18.621093zm-83.191407-18.507813c9.171875-8.476562 20.089844-14.832031 31.992188-18.621093v37.128906zm31.992188 107.050781v37.128907c-11.902344-3.789063-22.820313-10.144531-31.992188-18.621094zm51.199219-19.730468v-2.203125c2.90625-3.324219 5.132812-7.183594 6.5625-11.363281l1.96875-1.121094 43.617187 25.183594c-2.347656 5.183593-5.207031 10.117187-8.535156 14.726562zm31.992187 38.238281c-9.171875 8.476563-20.09375 14.832031-31.992187 18.621094v-37.128907zm-49.058594-147.679687v50.511718l-1.65625.953125c-4.539062-.933593-9.222656-.933593-13.765625 0l-1.644531-.953125v-50.511718c5.671875-.578126 11.390625-.578126 17.066406 0zm-17.066406 169.816406v-50.527344l1.65625-.957031c4.539063.933593 9.222656.933593 13.761719 0l1.648437.957031v50.507812c-5.675781.582032-11.394531.582032-17.066406 0zm0 0"></path><path d="m68.265625 110.933594c2.6875 0 5.214844-1.265625 6.828125-3.414063 13.820312-17.25 31.074219-31.441406 50.671875-41.667969 2.726563-1.429687 4.472656-4.21875 4.566406-7.296874.097657-3.078126-1.476562-5.96875-4.109375-7.5625-2.636718-1.59375-5.925781-1.644532-8.609375-.132813-21.75 11.394531-40.886719 27.203125-56.171875 46.421875-1.941406 2.585938-2.253906 6.042969-.808594 8.933594 1.445313 2.890625 4.402344 4.71875 7.632813 4.71875zm0 0"></path><path d="m162.132812 42.667969c0 4.710937-3.820312 8.53125-8.53125 8.53125-4.714843 0-8.535156-3.820313-8.535156-8.53125 0-4.714844 3.820313-8.535157 8.535156-8.535157 4.710938 0 8.53125 3.820313 8.53125 8.535157zm0 0"></path></svg>