<!-- icon666.com - MILLIONS vector ICONS FREE --><svg xmlns="http://www.w3.org/2000/svg" viewBox="0 0 48 48"><g id="_24._site_version_website_optimization" data-name="24. site version (website optimization"><path d="M21,17.24a1,1,0,0,0,1.68.47L24,16.41c1.41,1.41,1.59,1.74,2.27,1.55s.64-.49,1.7-4.72A1,1,0,0,0,26,12.76L25.46,15l-.75-.75a1,1,0,0,0-1.42,0l-.75.75L22,12.76a1,1,0,0,0-1.94.48Z"></path><path d="M30,17.24a1,1,0,0,0,1.68.47L33,16.41c1.41,1.41,1.59,1.74,2.27,1.55s.64-.49,1.7-4.72A1,1,0,0,0,35,12.76L34.46,15l-.75-.75a1,1,0,0,0-1.42,0l-.75.75L31,12.76a1,1,0,0,0-1.94.48Z"></path><path d="M12,17.24a1,1,0,0,0,1.68.47L15,16.41c1.41,1.41,1.59,1.74,2.27,1.55s.64-.49,1.7-4.72A1,1,0,0,0,17,12.76L16.46,15l-.75-.75a1,1,0,0,0-1.42,0l-.75.75L13,12.76a1,1,0,0,0-1.94.48Z"></path><path d="M42,11H41V10a2,2,0,0,0-2-2H37.26A15,15,0,0,0,10.74,8H9a2,2,0,0,0-2,2v1H6a3,3,0,0,0-3,3V38a3,3,0,0,0,3,3H19.85l-.72,5H17a1,1,0,0,0,0,2H31a1,1,0,0,0,0-2H28.87l-.72-5H42a3,3,0,0,0,3-3V14A3,3,0,0,0,42,11ZM34.94,8H31.1a16.2,16.2,0,0,0-2.27-5A13,13,0,0,1,34.94,8ZM19,8c.93-3.06,2.41-5.17,4-5.8V8Zm6-5.8c1.61.63,3.09,2.74,4,5.8H25ZM19.17,3A16.2,16.2,0,0,0,16.9,8H13.06A13,13,0,0,1,19.17,3ZM9,10H39V20H9ZM29,22c-.93,3.06-2.41,5.17-4,5.8V22ZM16.9,22a16.2,16.2,0,0,0,2.27,5.05A13,13,0,0,1,13.06,22ZM19,22h4v5.8C21.39,27.17,19.91,25.06,19,22ZM31.1,22h3.84a13,13,0,0,1-6.11,5.05A16.2,16.2,0,0,0,31.1,22ZM5,14a1,1,0,0,1,1-1H7v7a2,2,0,0,0,2,2h1.74a15,15,0,0,0,26.52,0H39a2,2,0,0,0,2-2V13h1a1,1,0,0,1,1,1V35H5ZM26.85,46h-5.7l.72-5h4.26ZM43,38a1,1,0,0,1-1,1H6a1,1,0,0,1-1-1V37H43Z"></path></g></svg>