<!-- icon666.com - MILLIONS vector ICONS FREE --><svg id="Capa_1" enable-background="new 0 0 473.867 473.867" viewBox="0 0 473.867 473.867" xmlns="http://www.w3.org/2000/svg"><g><g id="Wifi_1_"><g transform="matrix(.429 0 0 .429 13.714 20.783)"><circle clip-rule="evenodd" cx="520.845" cy="840.262" fill-rule="evenodd" r="99.552"></circle></g><g transform="matrix(1.212 1.212 -1.212 1.212 42.183 -38.871)"><path clip-rule="evenodd" d="m185.027 92.813c0-37.771 30.677-68.448 68.448-68.448 3.435 0 6.219-2.784 6.219-6.219s-2.784-6.219-6.219-6.219c-44.64 0-80.885 36.245-80.885 80.885 0 3.435 2.784 6.219 6.219 6.219s6.218-2.783 6.218-6.218z" fill-rule="evenodd"></path></g><g transform="matrix(2.121 2.121 -2.121 2.121 55.82 -96.146)"><path clip-rule="evenodd" d="m84.014 69.751c0-39.243 31.872-71.115 71.115-71.115 1.963 0 3.552-1.589 3.552-3.552s-1.589-3.552-3.552-3.552c-43.168 0-78.219 35.051-78.219 78.219 0 1.963 1.589 3.552 3.552 3.552s3.552-1.59 3.552-3.552z" fill-rule="evenodd"></path></g><g transform="matrix(3.03 3.03 -3.03 3.03 69.457 -153.422)"><path clip-rule="evenodd" d="m43.608 60.525c0-39.84 32.341-72.181 72.181-72.181 1.376 0 2.485-1.109 2.485-2.485s-1.109-2.485-2.485-2.485c-42.581 0-77.152 34.571-77.152 77.152 0 1.376 1.109 2.485 2.485 2.485 1.377 0 2.486-1.11 2.486-2.486z" fill-rule="evenodd"></path></g></g></g></svg>